<svg width="185" height="48" viewBox="0 0 185 48" fill="none" xmlns="http://www.w3.org/2000/svg">
<path d="M25.8877 17.17C26.271 17.17 26.5854 17.2467 26.8307 17.4C27.0914 17.538 27.306 17.7297 27.4747 17.975C27.6434 18.205 27.7814 18.4733 27.8887 18.78C27.996 19.0867 28.088 19.401 28.1647 19.723C28.778 22.207 29.284 24.254 29.6827 25.864C30.0814 27.474 30.3957 28.7773 30.6257 29.774C30.8557 30.7553 31.0167 31.4837 31.1087 31.959C31.2007 32.4343 31.2467 32.764 31.2467 32.948C31.2467 33.1627 31.193 33.3083 31.0857 33.385C30.9937 33.4617 30.8404 33.5 30.6257 33.5H29.4527C28.7934 33.5 28.2644 33.4233 27.8657 33.27C27.4824 33.1013 27.1834 32.8637 26.9687 32.557C26.7694 32.2503 26.6237 31.8823 26.5317 31.453C26.4397 31.0083 26.363 30.51 26.3017 29.958H22.2997L21.5407 33.132C21.464 33.3773 21.2877 33.5 21.0117 33.5H19.7927C19.5474 33.5 19.2944 33.477 19.0337 33.431C18.773 33.3697 18.5354 33.2777 18.3207 33.155C18.1214 33.0323 17.9527 32.879 17.8147 32.695C17.6767 32.4957 17.6077 32.258 17.6077 31.982C17.6077 31.6447 17.715 31.0927 17.9297 30.326C18.1444 29.5593 18.4127 28.693 18.7347 27.727C19.072 26.7457 19.44 25.726 19.8387 24.668C20.2527 23.5947 20.6514 22.5827 21.0347 21.632C21.418 20.6813 21.763 19.8457 22.0697 19.125C22.3917 18.4043 22.637 17.8983 22.8057 17.607C22.9284 17.3923 23.0357 17.2697 23.1277 17.239C23.235 17.193 23.4267 17.17 23.7027 17.17H25.8877ZM23.1277 26.623H25.7727L24.8067 20.551L23.1277 26.623ZM35.6922 33.73C35.0942 33.73 34.5192 33.6227 33.9672 33.408C33.4305 33.1933 32.9552 32.856 32.5412 32.396C32.1425 31.936 31.8205 31.3533 31.5752 30.648C31.3452 29.9427 31.2302 29.0917 31.2302 28.095C31.2302 27.6503 31.2608 27.1597 31.3222 26.623C31.3835 26.071 31.4908 25.519 31.6442 24.967C31.7975 24.415 32.0122 23.8783 32.2882 23.357C32.5642 22.8357 32.9092 22.3757 33.3232 21.977C33.7525 21.563 34.2585 21.2333 34.8412 20.988C35.4392 20.7427 36.1368 20.62 36.9342 20.62C37.7008 20.62 38.3142 20.758 38.7742 21.034C39.2495 21.2947 39.5485 21.7547 39.6712 22.414C39.7018 21.816 39.7325 21.2947 39.7632 20.85C39.7938 20.4053 39.8168 19.9913 39.8322 19.608C39.8628 19.2247 39.8935 18.8413 39.9242 18.458C39.9548 18.0747 39.9855 17.6377 40.0162 17.147C40.0315 16.8097 40.0698 16.6103 40.1312 16.549C40.1618 16.5183 40.2002 16.503 40.2462 16.503C40.2922 16.4877 40.3765 16.48 40.4992 16.48H41.3962C41.8562 16.48 42.2395 16.5337 42.5462 16.641C42.8528 16.7483 43.0982 16.894 43.2822 17.078C43.4662 17.262 43.5965 17.4767 43.6732 17.722C43.7498 17.952 43.7882 18.1973 43.7882 18.458C43.7882 18.458 43.7728 18.6497 43.7422 19.033C43.7115 19.4163 43.6732 19.93 43.6272 20.574C43.5812 21.2027 43.5275 21.9233 43.4662 22.736C43.4048 23.5487 43.3435 24.392 43.2822 25.266C43.2208 26.1247 43.1595 26.9833 43.0982 27.842C43.0368 28.6853 42.9755 29.4673 42.9142 30.188C42.8528 30.8933 42.7992 31.5067 42.7532 32.028C42.7225 32.534 42.6995 32.8713 42.6842 33.04C42.6535 33.224 42.6152 33.3467 42.5692 33.408C42.5232 33.4693 42.3928 33.5 42.1782 33.5H41.3502C41.0282 33.5 40.7215 33.477 40.4302 33.431C40.1542 33.3697 39.9088 33.2777 39.6942 33.155C39.4948 33.017 39.3338 32.8407 39.2112 32.626C39.1038 32.396 39.0502 32.1047 39.0502 31.752C38.7742 32.3347 38.3525 32.81 37.7852 33.178C37.2332 33.546 36.5355 33.73 35.6922 33.73ZM37.6932 23.679C36.9112 23.679 36.3285 24.024 35.9452 24.714C35.5772 25.3887 35.3932 26.301 35.3932 27.451C35.3932 27.8497 35.4162 28.2407 35.4622 28.624C35.5235 29.0073 35.6232 29.3523 35.7612 29.659C35.8992 29.9657 36.0832 30.211 36.3132 30.395C36.5585 30.579 36.8652 30.671 37.2332 30.671C37.8925 30.671 38.4445 30.349 38.8892 29.705C39.3338 29.061 39.5562 28.049 39.5562 26.669C39.5562 26.2857 39.5332 25.9177 39.4872 25.565C39.4412 25.197 39.3492 24.875 39.2112 24.599C39.0732 24.323 38.8815 24.1007 38.6362 23.932C38.3908 23.7633 38.0765 23.679 37.6932 23.679ZM49.7543 33.73C49.0797 33.73 48.405 33.6457 47.7303 33.477C47.071 33.3083 46.473 33.017 45.9363 32.603C45.415 32.189 44.9857 31.637 44.6483 30.947C44.311 30.257 44.1423 29.3907 44.1423 28.348C44.1423 27.9647 44.173 27.5047 44.2343 26.968C44.2957 26.4313 44.4107 25.8793 44.5793 25.312C44.7633 24.7447 45.0087 24.185 45.3153 23.633C45.6373 23.0657 46.0513 22.5597 46.5573 22.115C47.0633 21.6703 47.6767 21.31 48.3973 21.034C49.118 20.758 49.9767 20.62 50.9733 20.62C51.7707 20.62 52.4453 20.712 52.9973 20.896C53.5493 21.08 53.994 21.333 54.3313 21.655C54.6687 21.9617 54.914 22.322 55.0673 22.736C55.2207 23.15 55.2973 23.5947 55.2973 24.07C55.2973 24.7753 55.1517 25.3733 54.8603 25.864C54.5843 26.3547 54.2163 26.7687 53.7563 27.106C53.3117 27.428 52.8133 27.681 52.2613 27.865C51.7093 28.049 51.165 28.1947 50.6283 28.302C50.0917 28.394 49.5933 28.4553 49.1333 28.486C48.6887 28.5013 48.3437 28.509 48.0983 28.509C48.0983 28.8003 48.1367 29.0917 48.2133 29.383C48.3053 29.659 48.4357 29.9043 48.6043 30.119C48.773 30.3337 48.9953 30.51 49.2713 30.648C49.5473 30.786 49.8847 30.855 50.2833 30.855C50.682 30.855 50.9887 30.7937 51.2033 30.671C51.4333 30.533 51.6173 30.3873 51.7553 30.234C51.8933 30.0653 52.0083 29.9197 52.1003 29.797C52.2077 29.659 52.3457 29.59 52.5143 29.59C52.591 29.59 52.7213 29.613 52.9053 29.659C53.1047 29.6897 53.304 29.7663 53.5033 29.889C53.7027 30.0117 53.879 30.1803 54.0323 30.395C54.1857 30.6097 54.2623 30.8857 54.2623 31.223C54.2623 31.6677 54.1243 32.051 53.8483 32.373C53.5723 32.695 53.212 32.9557 52.7673 33.155C52.338 33.3543 51.855 33.5 51.3183 33.592C50.7817 33.684 50.2603 33.73 49.7543 33.73ZM50.1913 23.679C49.854 23.679 49.5627 23.7787 49.3173 23.978C49.0873 24.162 48.888 24.3997 48.7193 24.691C48.566 24.9823 48.4433 25.3043 48.3513 25.657C48.2747 26.0097 48.2133 26.347 48.1673 26.669C49.118 26.6537 49.8847 26.4927 50.4673 26.186C51.0653 25.8793 51.3643 25.4423 51.3643 24.875C51.3643 24.5683 51.2647 24.2923 51.0653 24.047C50.8813 23.8017 50.59 23.679 50.1913 23.679ZM58.3155 33.707C57.3649 33.707 56.6825 33.454 56.2685 32.948C55.8545 32.442 55.6475 31.6063 55.6475 30.441C55.6475 30.257 55.6552 30.027 55.6705 29.751C55.7012 29.475 55.7319 29.1223 55.7625 28.693C55.8085 28.2483 55.8622 27.704 55.9235 27.06C55.9849 26.416 56.0462 25.634 56.1075 24.714C56.1842 23.794 56.2609 22.713 56.3375 21.471C56.4295 20.229 56.5215 18.7877 56.6135 17.147C56.6289 16.8097 56.6672 16.6103 56.7285 16.549C56.7745 16.503 56.8972 16.48 57.0965 16.48H57.9935C58.4535 16.48 58.8369 16.5337 59.1435 16.641C59.4502 16.7483 59.6955 16.894 59.8795 17.078C60.0635 17.262 60.1939 17.4767 60.2705 17.722C60.3472 17.952 60.3855 18.1973 60.3855 18.458C60.3855 18.7647 60.3625 19.2093 60.3165 19.792C60.2859 20.3593 60.2399 21.0033 60.1785 21.724C60.1172 22.4447 60.0559 23.196 59.9945 23.978C59.9332 24.76 59.8719 25.5113 59.8105 26.232C59.7492 26.9373 59.6955 27.5737 59.6495 28.141C59.6189 28.7083 59.6035 29.1377 59.6035 29.429C59.6035 29.8277 59.6725 30.1113 59.8105 30.28C59.9639 30.4487 60.1249 30.5713 60.2935 30.648C60.4622 30.7093 60.6155 30.7553 60.7535 30.786C60.9069 30.8013 60.9835 30.8473 60.9835 30.924C60.9835 31.2613 60.9452 31.5987 60.8685 31.936C60.7919 32.258 60.6539 32.557 60.4545 32.833C60.2552 33.0937 59.9792 33.3083 59.6265 33.477C59.2892 33.6303 58.8522 33.707 58.3155 33.707ZM60.863 30.671C60.863 29.291 61.484 28.21 62.726 27.428C63.968 26.646 65.8003 26.2243 68.223 26.163C68.2383 25.9943 68.246 25.8563 68.246 25.749C68.2613 25.6263 68.269 25.4807 68.269 25.312C68.269 24.8213 68.177 24.4303 67.993 24.139C67.809 23.8477 67.4256 23.702 66.843 23.702C66.521 23.702 66.2603 23.748 66.061 23.84C65.8616 23.932 65.7006 24.0623 65.578 24.231C65.4553 24.3843 65.3556 24.576 65.279 24.806C65.2023 25.036 65.1333 25.289 65.072 25.565C65.0413 25.703 64.9723 25.795 64.865 25.841C64.7576 25.8717 64.589 25.887 64.359 25.887C62.795 25.887 62.013 25.2967 62.013 24.116C62.013 23.6407 62.1203 23.1883 62.335 22.759C62.565 22.3297 62.8946 21.9617 63.324 21.655C63.7686 21.333 64.3206 21.08 64.98 20.896C65.6393 20.712 66.406 20.62 67.28 20.62C68.982 20.62 70.2163 20.9727 70.983 21.678C71.7496 22.3833 72.133 23.38 72.133 24.668C72.133 24.8367 72.11 25.1433 72.064 25.588C72.0333 26.0173 71.9873 26.4773 71.926 26.968C71.88 27.4433 71.834 27.8957 71.788 28.325C71.7573 28.7543 71.742 29.0533 71.742 29.222C71.742 29.6053 71.811 29.8813 71.949 30.05C72.087 30.2033 72.2403 30.3107 72.409 30.372C72.593 30.4333 72.754 30.4793 72.892 30.51C73.03 30.5407 73.099 30.6173 73.099 30.74C73.099 31.0773 73.053 31.4223 72.961 31.775C72.869 32.1277 72.7156 32.4497 72.501 32.741C72.3016 33.0323 72.018 33.27 71.65 33.454C71.2973 33.638 70.8603 33.73 70.339 33.73C69.603 33.73 69.051 33.5537 68.683 33.201C68.315 32.8483 68.0696 32.3577 67.947 31.729C67.579 32.2657 67.096 32.7333 66.498 33.132C65.9153 33.5307 65.1486 33.73 64.198 33.73C63.738 33.73 63.301 33.6763 62.887 33.569C62.4883 33.4617 62.1356 33.2853 61.829 33.04C61.5376 32.7947 61.3 32.4803 61.116 32.097C60.9473 31.6983 60.863 31.223 60.863 30.671ZM68.016 28.049C67.6173 28.049 67.2263 28.0797 66.843 28.141C66.4596 28.2023 66.1146 28.302 65.808 28.44C65.5166 28.5627 65.279 28.7313 65.095 28.946C64.911 29.1607 64.819 29.4213 64.819 29.728C64.819 30.0807 64.9263 30.326 65.141 30.464C65.371 30.602 65.6163 30.671 65.877 30.671C66.1223 30.671 66.3676 30.6173 66.613 30.51C66.8583 30.4027 67.073 30.2417 67.257 30.027C67.4563 29.797 67.625 29.521 67.763 29.199C67.901 28.877 67.9853 28.4937 68.016 28.049ZM75.8469 33.5C75.3716 33.5 74.9806 33.454 74.6739 33.362C74.3826 33.2547 74.1449 33.109 73.9609 32.925C73.7923 32.741 73.6696 32.5187 73.5929 32.258C73.5316 31.982 73.5009 31.6677 73.5009 31.315C73.5009 31.085 73.5086 30.763 73.5239 30.349C73.5546 29.9197 73.6006 29.337 73.6619 28.601C73.7233 27.8497 73.7923 26.9067 73.8689 25.772C73.9609 24.622 74.0683 23.2037 74.1909 21.517C74.2063 21.1797 74.2446 20.9803 74.3059 20.919C74.3519 20.873 74.4746 20.85 74.6739 20.85H75.5709C76.0463 20.85 76.4296 20.896 76.7209 20.988C77.0276 21.08 77.2653 21.218 77.4339 21.402C77.6179 21.586 77.7406 21.8083 77.8019 22.069C77.8786 22.3297 77.9169 22.621 77.9169 22.943C77.9169 23.173 77.9016 23.518 77.8709 23.978C77.8403 24.438 77.7943 25.0667 77.7329 25.864C77.6869 26.646 77.6179 27.6273 77.5259 28.808C77.4339 29.9733 77.3189 31.384 77.1809 33.04C77.1656 33.224 77.1273 33.3467 77.0659 33.408C77.0046 33.4693 76.8743 33.5 76.6749 33.5H75.8469ZM74.2139 18.136C74.2139 17.5227 74.4363 17.0397 74.8809 16.687C75.3256 16.3343 75.9236 16.158 76.6749 16.158C77.3343 16.158 77.8096 16.296 78.1009 16.572C78.4076 16.8327 78.5609 17.1853 78.5609 17.63C78.5609 18.1973 78.3463 18.6727 77.9169 19.056C77.5029 19.424 76.8896 19.608 76.0769 19.608C74.8349 19.608 74.2139 19.1173 74.2139 18.136ZM83.1207 33.73C82.5227 33.73 81.9477 33.6227 81.3957 33.408C80.859 33.1933 80.3837 32.856 79.9697 32.396C79.571 31.936 79.249 31.3533 79.0037 30.648C78.7737 29.9427 78.6587 29.0917 78.6587 28.095C78.6587 27.6503 78.6893 27.1597 78.7507 26.623C78.812 26.071 78.9193 25.519 79.0727 24.967C79.226 24.415 79.4407 23.8783 79.7167 23.357C79.9927 22.8357 80.3377 22.3757 80.7517 21.977C81.181 21.563 81.687 21.2333 82.2697 20.988C82.8677 20.7427 83.5653 20.62 84.3627 20.62C85.1293 20.62 85.7427 20.758 86.2027 21.034C86.678 21.2947 86.977 21.7547 87.0997 22.414C87.1303 21.816 87.161 21.2947 87.1917 20.85C87.2223 20.4053 87.2453 19.9913 87.2607 19.608C87.2913 19.2247 87.322 18.8413 87.3527 18.458C87.3833 18.0747 87.414 17.6377 87.4447 17.147C87.46 16.8097 87.4983 16.6103 87.5597 16.549C87.5903 16.5183 87.6287 16.503 87.6747 16.503C87.7207 16.4877 87.805 16.48 87.9277 16.48H88.8247C89.2847 16.48 89.668 16.5337 89.9747 16.641C90.2813 16.7483 90.5267 16.894 90.7107 17.078C90.8947 17.262 91.025 17.4767 91.1017 17.722C91.1783 17.952 91.2167 18.1973 91.2167 18.458C91.2167 18.458 91.2013 18.6497 91.1707 19.033C91.14 19.4163 91.1017 19.93 91.0557 20.574C91.0097 21.2027 90.956 21.9233 90.8947 22.736C90.8333 23.5487 90.772 24.392 90.7107 25.266C90.6493 26.1247 90.588 26.9833 90.5267 27.842C90.4653 28.6853 90.404 29.4673 90.3427 30.188C90.2813 30.8933 90.2277 31.5067 90.1817 32.028C90.151 32.534 90.128 32.8713 90.1127 33.04C90.082 33.224 90.0437 33.3467 89.9977 33.408C89.9517 33.4693 89.8213 33.5 89.6067 33.5H88.7787C88.4567 33.5 88.15 33.477 87.8587 33.431C87.5827 33.3697 87.3373 33.2777 87.1227 33.155C86.9233 33.017 86.7623 32.8407 86.6397 32.626C86.5323 32.396 86.4787 32.1047 86.4787 31.752C86.2027 32.3347 85.781 32.81 85.2137 33.178C84.6617 33.546 83.964 33.73 83.1207 33.73ZM85.1217 23.679C84.3397 23.679 83.757 24.024 83.3737 24.714C83.0057 25.3887 82.8217 26.301 82.8217 27.451C82.8217 27.8497 82.8447 28.2407 82.8907 28.624C82.952 29.0073 83.0517 29.3523 83.1897 29.659C83.3277 29.9657 83.5117 30.211 83.7417 30.395C83.987 30.579 84.2937 30.671 84.6617 30.671C85.321 30.671 85.873 30.349 86.3177 29.705C86.7623 29.061 86.9847 28.049 86.9847 26.669C86.9847 26.2857 86.9617 25.9177 86.9157 25.565C86.8697 25.197 86.7777 24.875 86.6397 24.599C86.5017 24.323 86.31 24.1007 86.0647 23.932C85.8193 23.7633 85.505 23.679 85.1217 23.679ZM97.1828 33.73C96.5082 33.73 95.8335 33.6457 95.1588 33.477C94.4995 33.3083 93.9015 33.017 93.3648 32.603C92.8435 32.189 92.4142 31.637 92.0768 30.947C91.7395 30.257 91.5708 29.3907 91.5708 28.348C91.5708 27.9647 91.6015 27.5047 91.6628 26.968C91.7242 26.4313 91.8392 25.8793 92.0078 25.312C92.1918 24.7447 92.4372 24.185 92.7438 23.633C93.0658 23.0657 93.4798 22.5597 93.9858 22.115C94.4918 21.6703 95.1052 21.31 95.8258 21.034C96.5465 20.758 97.4052 20.62 98.4018 20.62C99.1992 20.62 99.8738 20.712 100.426 20.896C100.978 21.08 101.423 21.333 101.76 21.655C102.097 21.9617 102.343 22.322 102.496 22.736C102.649 23.15 102.726 23.5947 102.726 24.07C102.726 24.7753 102.58 25.3733 102.289 25.864C102.013 26.3547 101.645 26.7687 101.185 27.106C100.74 27.428 100.242 27.681 99.6898 27.865C99.1378 28.049 98.5935 28.1947 98.0568 28.302C97.5202 28.394 97.0218 28.4553 96.5618 28.486C96.1172 28.5013 95.7722 28.509 95.5268 28.509C95.5268 28.8003 95.5652 29.0917 95.6418 29.383C95.7338 29.659 95.8642 29.9043 96.0328 30.119C96.2015 30.3337 96.4238 30.51 96.6998 30.648C96.9758 30.786 97.3132 30.855 97.7118 30.855C98.1105 30.855 98.4172 30.7937 98.6318 30.671C98.8618 30.533 99.0458 30.3873 99.1838 30.234C99.3218 30.0653 99.4368 29.9197 99.5288 29.797C99.6362 29.659 99.7742 29.59 99.9428 29.59C100.02 29.59 100.15 29.613 100.334 29.659C100.533 29.6897 100.733 29.7663 100.932 29.889C101.131 30.0117 101.308 30.1803 101.461 30.395C101.614 30.6097 101.691 30.8857 101.691 31.223C101.691 31.6677 101.553 32.051 101.277 32.373C101.001 32.695 100.641 32.9557 100.196 33.155C99.7665 33.3543 99.2835 33.5 98.7468 33.592C98.2102 33.684 97.6888 33.73 97.1828 33.73ZM97.6198 23.679C97.2825 23.679 96.9912 23.7787 96.7458 23.978C96.5158 24.162 96.3165 24.3997 96.1478 24.691C95.9945 24.9823 95.8718 25.3043 95.7798 25.657C95.7032 26.0097 95.6418 26.347 95.5958 26.669C96.5465 26.6537 97.3132 26.4927 97.8958 26.186C98.4938 25.8793 98.7928 25.4423 98.7928 24.875C98.7928 24.5683 98.6932 24.2923 98.4938 24.047C98.3098 23.8017 98.0185 23.679 97.6198 23.679ZM111.743 33.73C110.839 33.73 110.095 33.6687 109.512 33.546C108.93 33.4387 108.462 33.2777 108.109 33.063C107.772 32.833 107.534 32.5493 107.396 32.212C107.274 31.8747 107.212 31.476 107.212 31.016C107.212 30.878 107.22 30.6863 107.235 30.441C107.251 30.1803 107.274 29.82 107.304 29.36C107.335 28.9 107.373 28.3097 107.419 27.589C107.481 26.853 107.557 25.933 107.649 24.829C107.757 23.4643 107.841 22.3833 107.902 21.586C107.964 20.7887 108.01 20.1753 108.04 19.746C108.071 19.3013 108.086 18.9947 108.086 18.826C108.102 18.642 108.109 18.4887 108.109 18.366C108.109 18.1207 108.109 17.9213 108.109 17.768C108.125 17.6147 108.14 17.4997 108.155 17.423C108.186 17.331 108.224 17.2697 108.27 17.239C108.332 17.193 108.416 17.17 108.523 17.17C109.428 17.1087 110.195 17.0627 110.823 17.032C111.467 17.0013 112.027 16.986 112.502 16.986C113.668 16.986 114.664 17.0857 115.492 17.285C116.336 17.469 117.018 17.7373 117.539 18.09C118.061 18.4427 118.444 18.8797 118.689 19.401C118.935 19.9223 119.057 20.5127 119.057 21.172C119.057 21.54 119.019 21.9233 118.942 22.322C118.866 22.7053 118.735 23.0733 118.551 23.426C118.367 23.7787 118.114 24.093 117.792 24.369C117.486 24.6297 117.095 24.8213 116.619 24.944C117.509 25.22 118.137 25.68 118.505 26.324C118.873 26.9527 119.057 27.704 119.057 28.578C119.057 29.2833 118.942 29.9503 118.712 30.579C118.482 31.1923 118.084 31.7367 117.516 32.212C116.949 32.672 116.198 33.04 115.262 33.316C114.327 33.592 113.154 33.73 111.743 33.73ZM113.054 26.6C112.886 26.6 112.679 26.6153 112.433 26.646C112.188 26.6613 111.935 26.692 111.674 26.738L111.421 30.487C111.973 30.6557 112.472 30.74 112.916 30.74C113.392 30.74 113.775 30.671 114.066 30.533C114.358 30.395 114.58 30.2263 114.733 30.027C114.902 29.8123 115.009 29.5823 115.055 29.337C115.117 29.0763 115.147 28.8387 115.147 28.624C115.147 28.0567 114.986 27.5813 114.664 27.198C114.358 26.7993 113.821 26.6 113.054 26.6ZM112.088 20.275C112.058 20.6737 112.027 21.1413 111.996 21.678C111.981 22.2147 111.95 22.7973 111.904 23.426C112.395 23.5487 112.832 23.61 113.215 23.61C113.675 23.61 114.043 23.5563 114.319 23.449C114.595 23.3417 114.81 23.2037 114.963 23.035C115.132 22.8663 115.239 22.6823 115.285 22.483C115.347 22.2837 115.377 22.092 115.377 21.908C115.377 21.4327 115.216 21.0263 114.894 20.689C114.588 20.3363 114.051 20.16 113.284 20.16C113.116 20.16 112.924 20.1753 112.709 20.206C112.51 20.2213 112.303 20.2443 112.088 20.275ZM125.025 33.73C123.967 33.73 123.086 33.5843 122.38 33.293C121.69 32.9863 121.138 32.5723 120.724 32.051C120.31 31.5297 120.019 30.924 119.85 30.234C119.682 29.5287 119.597 28.7773 119.597 27.98C119.597 27.06 119.705 26.163 119.919 25.289C120.149 24.3997 120.533 23.61 121.069 22.92C121.606 22.23 122.311 21.678 123.185 21.264C124.075 20.8347 125.179 20.62 126.497 20.62C128.429 20.62 129.809 21.0953 130.637 22.046C131.481 22.9813 131.902 24.3 131.902 26.002C131.902 26.4773 131.864 27.0063 131.787 27.589C131.726 28.1563 131.596 28.7237 131.396 29.291C131.212 29.8583 130.952 30.4103 130.614 30.947C130.292 31.4837 129.878 31.959 129.372 32.373C128.866 32.787 128.253 33.1167 127.532 33.362C126.827 33.6073 125.991 33.73 125.025 33.73ZM126.106 23.679C125.524 23.679 125.056 23.8323 124.703 24.139C124.366 24.4303 124.105 24.7907 123.921 25.22C123.753 25.634 123.638 26.0787 123.576 26.554C123.53 27.014 123.507 27.405 123.507 27.727C123.507 28.739 123.668 29.4827 123.99 29.958C124.312 30.4333 124.772 30.671 125.37 30.671C125.907 30.671 126.344 30.5023 126.681 30.165C127.034 29.8277 127.302 29.4213 127.486 28.946C127.686 28.4707 127.816 27.9723 127.877 27.451C127.954 26.9297 127.992 26.4927 127.992 26.14C127.992 25.3733 127.847 24.7753 127.555 24.346C127.279 23.9013 126.796 23.679 126.106 23.679ZM131.894 30.671C131.894 29.291 132.515 28.21 133.757 27.428C134.999 26.646 136.832 26.2243 139.254 26.163C139.27 25.9943 139.277 25.8563 139.277 25.749C139.293 25.6263 139.3 25.4807 139.3 25.312C139.3 24.8213 139.208 24.4303 139.024 24.139C138.84 23.8477 138.457 23.702 137.874 23.702C137.552 23.702 137.292 23.748 137.092 23.84C136.893 23.932 136.732 24.0623 136.609 24.231C136.487 24.3843 136.387 24.576 136.31 24.806C136.234 25.036 136.165 25.289 136.103 25.565C136.073 25.703 136.004 25.795 135.896 25.841C135.789 25.8717 135.62 25.887 135.39 25.887C133.826 25.887 133.044 25.2967 133.044 24.116C133.044 23.6407 133.152 23.1883 133.366 22.759C133.596 22.3297 133.926 21.9617 134.355 21.655C134.8 21.333 135.352 21.08 136.011 20.896C136.671 20.712 137.437 20.62 138.311 20.62C140.013 20.62 141.248 20.9727 142.014 21.678C142.781 22.3833 143.164 23.38 143.164 24.668C143.164 24.8367 143.141 25.1433 143.095 25.588C143.065 26.0173 143.019 26.4773 142.957 26.968C142.911 27.4433 142.865 27.8957 142.819 28.325C142.789 28.7543 142.773 29.0533 142.773 29.222C142.773 29.6053 142.842 29.8813 142.98 30.05C143.118 30.2033 143.272 30.3107 143.44 30.372C143.624 30.4333 143.785 30.4793 143.923 30.51C144.061 30.5407 144.13 30.6173 144.13 30.74C144.13 31.0773 144.084 31.4223 143.992 31.775C143.9 32.1277 143.747 32.4497 143.532 32.741C143.333 33.0323 143.049 33.27 142.681 33.454C142.329 33.638 141.892 33.73 141.37 33.73C140.634 33.73 140.082 33.5537 139.714 33.201C139.346 32.8483 139.101 32.3577 138.978 31.729C138.61 32.2657 138.127 32.7333 137.529 33.132C136.947 33.5307 136.18 33.73 135.229 33.73C134.769 33.73 134.332 33.6763 133.918 33.569C133.52 33.4617 133.167 33.2853 132.86 33.04C132.569 32.7947 132.331 32.4803 132.147 32.097C131.979 31.6983 131.894 31.223 131.894 30.671ZM139.047 28.049C138.649 28.049 138.258 28.0797 137.874 28.141C137.491 28.2023 137.146 28.302 136.839 28.44C136.548 28.5627 136.31 28.7313 136.126 28.946C135.942 29.1607 135.85 29.4213 135.85 29.728C135.85 30.0807 135.958 30.326 136.172 30.464C136.402 30.602 136.648 30.671 136.908 30.671C137.154 30.671 137.399 30.6173 137.644 30.51C137.89 30.4027 138.104 30.2417 138.288 30.027C138.488 29.797 138.656 29.521 138.794 29.199C138.932 28.877 139.017 28.4937 139.047 28.049ZM151.938 26.347C151.846 26.347 151.739 26.347 151.616 26.347C151.509 26.3317 151.402 26.3163 151.294 26.301C151.187 26.2703 151.095 26.2397 151.018 26.209C150.942 26.163 150.903 26.1093 150.903 26.048C150.903 25.8487 150.911 25.6647 150.926 25.496C150.942 25.3273 150.949 25.151 150.949 24.967C150.949 24.6297 150.903 24.3537 150.811 24.139C150.719 23.9243 150.535 23.817 150.259 23.817C149.83 23.817 149.47 24.1007 149.178 24.668C148.902 25.22 148.726 26.0557 148.649 27.175C148.619 27.6657 148.573 28.2253 148.511 28.854C148.465 29.4673 148.419 30.0653 148.373 30.648C148.327 31.2153 148.289 31.7213 148.258 32.166C148.228 32.6107 148.212 32.902 148.212 33.04C148.212 33.1933 148.159 33.3083 148.051 33.385C147.944 33.4617 147.829 33.5 147.706 33.5H146.878C146.403 33.5 146.012 33.454 145.705 33.362C145.414 33.2547 145.176 33.109 144.992 32.925C144.824 32.741 144.701 32.5187 144.624 32.258C144.563 31.982 144.532 31.6677 144.532 31.315C144.532 31.085 144.54 30.763 144.555 30.349C144.586 29.9197 144.632 29.337 144.693 28.601C144.755 27.8497 144.824 26.9067 144.9 25.772C144.992 24.622 145.1 23.2037 145.222 21.517C145.253 21.0723 145.414 20.85 145.705 20.85H146.602C147.032 20.85 147.392 20.896 147.683 20.988C147.975 21.08 148.212 21.2103 148.396 21.379C148.58 21.5323 148.711 21.7163 148.787 21.931C148.879 22.1457 148.941 22.368 148.971 22.598C149.155 22.2453 149.37 21.9463 149.615 21.701C149.876 21.4403 150.144 21.2333 150.42 21.08C150.696 20.9113 150.98 20.7963 151.271 20.735C151.563 20.6583 151.831 20.62 152.076 20.62C152.368 20.62 152.659 20.6737 152.95 20.781C153.257 20.8883 153.533 21.0493 153.778 21.264C154.024 21.4787 154.215 21.7547 154.353 22.092C154.507 22.4293 154.583 22.828 154.583 23.288C154.583 23.702 154.522 24.093 154.399 24.461C154.277 24.829 154.1 25.1587 153.87 25.45C153.64 25.726 153.357 25.9483 153.019 26.117C152.697 26.2703 152.337 26.347 151.938 26.347ZM158.689 33.73C158.091 33.73 157.516 33.6227 156.964 33.408C156.427 33.1933 155.952 32.856 155.538 32.396C155.139 31.936 154.817 31.3533 154.572 30.648C154.342 29.9427 154.227 29.0917 154.227 28.095C154.227 27.6503 154.258 27.1597 154.319 26.623C154.38 26.071 154.488 25.519 154.641 24.967C154.794 24.415 155.009 23.8783 155.285 23.357C155.561 22.8357 155.906 22.3757 156.32 21.977C156.749 21.563 157.255 21.2333 157.838 20.988C158.436 20.7427 159.134 20.62 159.931 20.62C160.698 20.62 161.311 20.758 161.771 21.034C162.246 21.2947 162.545 21.7547 162.668 22.414C162.699 21.816 162.729 21.2947 162.76 20.85C162.791 20.4053 162.814 19.9913 162.829 19.608C162.86 19.2247 162.89 18.8413 162.921 18.458C162.952 18.0747 162.982 17.6377 163.013 17.147C163.028 16.8097 163.067 16.6103 163.128 16.549C163.159 16.5183 163.197 16.503 163.243 16.503C163.289 16.4877 163.373 16.48 163.496 16.48H164.393C164.853 16.48 165.236 16.5337 165.543 16.641C165.85 16.7483 166.095 16.894 166.279 17.078C166.463 17.262 166.593 17.4767 166.67 17.722C166.747 17.952 166.785 18.1973 166.785 18.458C166.785 18.458 166.77 18.6497 166.739 19.033C166.708 19.4163 166.67 19.93 166.624 20.574C166.578 21.2027 166.524 21.9233 166.463 22.736C166.402 23.5487 166.34 24.392 166.279 25.266C166.218 26.1247 166.156 26.9833 166.095 27.842C166.034 28.6853 165.972 29.4673 165.911 30.188C165.85 30.8933 165.796 31.5067 165.75 32.028C165.719 32.534 165.696 32.8713 165.681 33.04C165.65 33.224 165.612 33.3467 165.566 33.408C165.52 33.4693 165.39 33.5 165.175 33.5H164.347C164.025 33.5 163.718 33.477 163.427 33.431C163.151 33.3697 162.906 33.2777 162.691 33.155C162.492 33.017 162.331 32.8407 162.208 32.626C162.101 32.396 162.047 32.1047 162.047 31.752C161.771 32.3347 161.349 32.81 160.782 33.178C160.23 33.546 159.532 33.73 158.689 33.73ZM160.69 23.679C159.908 23.679 159.325 24.024 158.942 24.714C158.574 25.3887 158.39 26.301 158.39 27.451C158.39 27.8497 158.413 28.2407 158.459 28.624C158.52 29.0073 158.62 29.3523 158.758 29.659C158.896 29.9657 159.08 30.211 159.31 30.395C159.555 30.579 159.862 30.671 160.23 30.671C160.889 30.671 161.441 30.349 161.886 29.705C162.331 29.061 162.553 28.049 162.553 26.669C162.553 26.2857 162.53 25.9177 162.484 25.565C162.438 25.197 162.346 24.875 162.208 24.599C162.07 24.323 161.878 24.1007 161.633 23.932C161.388 23.7633 161.073 23.679 160.69 23.679Z" fill="black"/>
<rect x="2.5" y="2.5" width="180" height="43" rx="9.5" stroke="black" stroke-width="5" stroke-linecap="round" stroke-linejoin="round"/>
</svg>
